<?xml version="1.0" encoding="UTF-8"?>
<!DOCTYPE svg PUBLIC "-//W3C//DTD SVG 1.1//EN" "http://www.w3.org/Graphics/SVG/1.1/DTD/svg11.dtd">
<svg xmlns="http://www.w3.org/2000/svg" version="1.1" width="400px" height="400px" style="shape-rendering:geometricPrecision; text-rendering:geometricPrecision; image-rendering:optimizeQuality; fill-rule:evenodd; clip-rule:evenodd" xmlns:xlink="http://www.w3.org/1999/xlink">
<g><path style="opacity:1" fill="#fbfdfc" d="M 19.5,-0.5 C 29.1667,-0.5 38.8333,-0.5 48.5,-0.5C 48.5651,2.42816 49.2318,5.09483 50.5,7.5C 53.0771,16.029 55.4105,24.6957 57.5,33.5C 57.2594,35.8984 57.9261,37.8984 59.5,39.5C 63.0194,51.3826 66.686,63.0493 70.5,74.5C 74.1703,86.5946 77.8369,98.5946 81.5,110.5C 85.0972,119.291 88.0972,128.291 90.5,137.5C 90.427,139.027 91.0937,140.027 92.5,140.5C 92.8751,142.698 93.5418,144.698 94.5,146.5C 94.3433,147.873 94.51,149.207 95,150.5C 101.29,164.024 107.123,177.69 112.5,191.5C 116.348,198.042 119.014,205.042 120.5,212.5C 113.406,218.043 106.739,224.043 100.5,230.5C 96.9592,223.865 93.1258,217.198 89,210.5C 84.4335,198.28 79.6001,186.28 74.5,174.5C 69.29,158.793 63.6233,143.46 57.5,128.5C 55.32,121.293 52.9866,114.293 50.5,107.5C 50.7406,105.102 50.0739,103.102 48.5,101.5C 44.6209,90.1667 40.9542,78.8334 37.5,67.5C 31.3772,44.895 25.3772,22.2284 19.5,-0.5 Z"/></g>
<g><path style="opacity:1" fill="#148c46" d="M 49.5,-0.5 C 147.167,-0.5 244.833,-0.5 342.5,-0.5C 337.212,19.9409 331.545,40.2742 325.5,60.5C 325.167,60.5 324.833,60.5 324.5,60.5C 324.631,59.6236 324.298,58.9569 323.5,58.5C 238.44,58.1719 153.274,58.5052 68,59.5C 65.5945,51.1185 63.0945,42.7852 60.5,34.5C 59.8933,34.6236 59.56,34.9569 59.5,35.5C 58.8333,34.8333 58.1667,34.1667 57.5,33.5C 55.4105,24.6957 53.0771,16.029 50.5,7.5C 50.4249,4.79384 50.0916,2.12717 49.5,-0.5 Z"/></g>
<g><path style="opacity:1" fill="#fbfcfc" d="M 342.5,-0.5 C 352.167,-0.5 361.833,-0.5 371.5,-0.5C 370.167,6.16523 368.834,12.8319 367.5,19.5C 365.926,21.1016 365.259,23.1016 365.5,25.5C 363.887,29.7317 362.554,34.0651 361.5,38.5C 360.005,43.6791 358.671,49.0124 357.5,54.5C 356.766,55.7079 356.433,57.0413 356.5,58.5C 352.074,73.1158 347.408,87.7825 342.5,102.5C 340.928,105.215 339.928,108.215 339.5,111.5C 333.843,129.534 327.51,147.534 320.5,165.5C 316.032,174.113 312.365,183.113 309.5,192.5C 307.35,197.431 305.35,202.431 303.5,207.5C 301.033,210.337 299.367,213.671 298.5,217.5C 296.75,218.659 295.75,220.326 295.5,222.5C 288.978,234.07 282.644,245.737 276.5,257.5C 273.609,258.403 270.609,258.736 267.5,258.5C 260.249,256.049 254.249,251.882 249.5,246C 255.378,236.289 261.045,226.455 266.5,216.5C 270.797,208.373 274.797,200.04 278.5,191.5C 285.144,175.178 291.811,158.845 298.5,142.5C 301.174,134.83 303.841,127.163 306.5,119.5C 308.501,113.817 310.501,108.151 312.5,102.5C 313.946,99.7458 314.946,96.7458 315.5,93.5C 316.424,90.2039 317.424,86.8705 318.5,83.5C 320.04,78.4778 321.707,73.4778 323.5,68.5C 325.04,66.1617 325.706,63.4951 325.5,60.5C 331.545,40.2742 337.212,19.9409 342.5,-0.5 Z"/></g>
<g><path style="opacity:1" fill="#9acdaf" d="M 48.5,-0.5 C 48.8333,-0.5 49.1667,-0.5 49.5,-0.5C 50.0916,2.12717 50.4249,4.79384 50.5,7.5C 49.2318,5.09483 48.5651,2.42816 48.5,-0.5 Z"/></g>
<g><path style="opacity:1" fill="#67b383" d="M 367.5,19.5 C 367.741,21.8984 367.074,23.8984 365.5,25.5C 365.259,23.1016 365.926,21.1016 367.5,19.5 Z"/></g>
<g><path style="opacity:1" fill="#a1d0b4" d="M 57.5,33.5 C 58.1667,34.1667 58.8333,34.8333 59.5,35.5C 59.5,36.8333 59.5,38.1667 59.5,39.5C 57.9261,37.8984 57.2594,35.8984 57.5,33.5 Z"/></g>
<g><path style="opacity:1" fill="#148a45" d="M 371.5,-0.5 C 380.833,-0.5 390.167,-0.5 399.5,-0.5C 399.5,22.1667 399.5,44.8333 399.5,67.5C 385.829,67.3334 372.163,67.5001 358.5,68C 358,68.5 357.5,69 357,69.5C 355.404,65.9372 355.237,62.2706 356.5,58.5C 356.433,57.0413 356.766,55.7079 357.5,54.5C 360.548,49.6932 361.882,44.3599 361.5,38.5C 362.554,34.0651 363.887,29.7317 365.5,25.5C 367.074,23.8984 367.741,21.8984 367.5,19.5C 368.834,12.8319 370.167,6.16523 371.5,-0.5 Z"/></g>
<g><path style="opacity:1" fill="#5dac7b" d="M 361.5,38.5 C 361.882,44.3599 360.548,49.6932 357.5,54.5C 358.671,49.0124 360.005,43.6791 361.5,38.5 Z"/></g>
<g><path style="opacity:1" fill="#aad4bb" d="M 324.5,60.5 C 324.833,60.5 325.167,60.5 325.5,60.5C 325.706,63.4951 325.04,66.1617 323.5,68.5C 323.833,65.8333 324.167,63.1667 324.5,60.5 Z"/></g>
<g><path style="opacity:1" fill="#168a45" d="M -0.5,-0.5 C 6.16667,-0.5 12.8333,-0.5 19.5,-0.5C 25.3772,22.2284 31.3772,44.895 37.5,67.5C 38.3307,71.4761 38.4973,75.4761 38,79.5C 37.6667,79.8333 37.3333,80.1667 37,80.5C 34.5634,77.8506 33.23,78.5172 33,82.5C 32.51,81.2068 32.3433,79.8734 32.5,78.5C 27.5,78.5 22.5,78.5 17.5,78.5C 17.1667,83.8333 16.8333,83.8333 16.5,78.5C 13.8333,78.5 11.1667,78.5 8.5,78.5C 8.16667,83.8333 7.83333,83.8333 7.5,78.5C 4.83333,78.5 2.16667,78.5 -0.5,78.5C -0.5,52.1667 -0.5,25.8333 -0.5,-0.5 Z"/></g>
<g><path style="opacity:1" fill="#148844" d="M 324.5,60.5 C 324.167,63.1667 323.833,65.8333 323.5,68.5C 321.707,73.4778 320.04,78.4778 318.5,83.5C 316.716,82.4262 315.549,80.7596 315,78.5C 314.667,79.1667 314.333,79.8333 314,80.5C 312.599,78.8078 310.766,78.1412 308.5,78.5C 308.167,83.8333 307.833,83.8333 307.5,78.5C 302.5,78.5 297.5,78.5 292.5,78.5C 292.167,83.8333 291.833,83.8333 291.5,78.5C 288.833,78.5 286.167,78.5 283.5,78.5C 283.167,83.8333 282.833,83.8333 282.5,78.5C 277.5,78.5 272.5,78.5 267.5,78.5C 267.167,83.8333 266.833,83.8333 266.5,78.5C 263.833,78.5 261.167,78.5 258.5,78.5C 258.167,83.8333 257.833,83.8333 257.5,78.5C 252.5,78.5 247.5,78.5 242.5,78.5C 242.167,83.8333 241.833,83.8333 241.5,78.5C 238.833,78.5 236.167,78.5 233.5,78.5C 233.167,83.8333 232.833,83.8333 232.5,78.5C 227.5,78.5 222.5,78.5 217.5,78.5C 217.167,83.8333 216.833,83.8333 216.5,78.5C 213.833,78.5 211.167,78.5 208.5,78.5C 208.167,83.8333 207.833,83.8333 207.5,78.5C 202.5,78.5 197.5,78.5 192.5,78.5C 192.167,83.8333 191.833,83.8333 191.5,78.5C 188.833,78.5 186.167,78.5 183.5,78.5C 183.167,83.8333 182.833,83.8333 182.5,78.5C 177.5,78.5 172.5,78.5 167.5,78.5C 167.167,83.8333 166.833,83.8333 166.5,78.5C 163.833,78.5 161.167,78.5 158.5,78.5C 158.167,83.8333 157.833,83.8333 157.5,78.5C 152.5,78.5 147.5,78.5 142.5,78.5C 142.167,83.8333 141.833,83.8333 141.5,78.5C 138.833,78.5 136.167,78.5 133.5,78.5C 133.167,83.8333 132.833,83.8333 132.5,78.5C 127.5,78.5 122.5,78.5 117.5,78.5C 117.167,83.8333 116.833,83.8333 116.5,78.5C 113.833,78.5 111.167,78.5 108.5,78.5C 108.167,83.8333 107.833,83.8333 107.5,78.5C 102.5,78.5 97.5,78.5 92.5,78.5C 92.1667,83.8333 91.8333,83.8333 91.5,78.5C 88.8333,78.5 86.1667,78.5 83.5,78.5C 83.1667,83.8333 82.8333,83.8333 82.5,78.5C 80.2341,78.1412 78.4007,78.8078 77,80.5C 76.3086,78.1088 75.3086,78.1088 74,80.5C 73.6075,77.367 72.7741,74.367 71.5,71.5C 70.6143,72.325 70.281,73.325 70.5,74.5C 66.686,63.0493 63.0194,51.3826 59.5,39.5C 59.5,38.1667 59.5,36.8333 59.5,35.5C 59.56,34.9569 59.8933,34.6236 60.5,34.5C 63.0945,42.7852 65.5945,51.1185 68,59.5C 153.274,58.5052 238.44,58.1719 323.5,58.5C 324.298,58.9569 324.631,59.6236 324.5,60.5 Z"/></g>
<g><path style="opacity:1" fill="#138643" d="M 318.5,83.5 C 317.424,86.8705 316.424,90.2039 315.5,93.5C 313.446,96.0076 312.446,99.0076 312.5,102.5C 310.501,108.151 308.501,113.817 306.5,119.5C 305.883,119.611 305.383,119.944 305,120.5C 304.761,118.239 304.594,116.239 304.5,114.5C 300.571,115.433 296.571,115.766 292.5,115.5C 292.5,113.167 292.5,110.833 292.5,108.5C 222.929,108.831 153.429,108.498 84,107.5C 83.7645,109.119 82.9311,110.119 81.5,110.5C 77.8369,98.5946 74.1703,86.5946 70.5,74.5C 70.281,73.325 70.6143,72.325 71.5,71.5C 72.7741,74.367 73.6075,77.367 74,80.5C 75.3086,78.1088 76.3086,78.1088 77,80.5C 78.4007,78.8078 80.2341,78.1412 82.5,78.5C 82.8333,83.8333 83.1667,83.8333 83.5,78.5C 86.1667,78.5 88.8333,78.5 91.5,78.5C 91.8333,83.8333 92.1667,83.8333 92.5,78.5C 97.5,78.5 102.5,78.5 107.5,78.5C 107.833,83.8333 108.167,83.8333 108.5,78.5C 111.167,78.5 113.833,78.5 116.5,78.5C 116.833,83.8333 117.167,83.8333 117.5,78.5C 122.5,78.5 127.5,78.5 132.5,78.5C 132.833,83.8333 133.167,83.8333 133.5,78.5C 136.167,78.5 138.833,78.5 141.5,78.5C 141.833,83.8333 142.167,83.8333 142.5,78.5C 147.5,78.5 152.5,78.5 157.5,78.5C 157.833,83.8333 158.167,83.8333 158.5,78.5C 161.167,78.5 163.833,78.5 166.5,78.5C 166.833,83.8333 167.167,83.8333 167.5,78.5C 172.5,78.5 177.5,78.5 182.5,78.5C 182.833,83.8333 183.167,83.8333 183.5,78.5C 186.167,78.5 188.833,78.5 191.5,78.5C 191.833,83.8333 192.167,83.8333 192.5,78.5C 197.5,78.5 202.5,78.5 207.5,78.5C 207.833,83.8333 208.167,83.8333 208.5,78.5C 211.167,78.5 213.833,78.5 216.5,78.5C 216.833,83.8333 217.167,83.8333 217.5,78.5C 222.5,78.5 227.5,78.5 232.5,78.5C 232.833,83.8333 233.167,83.8333 233.5,78.5C 236.167,78.5 238.833,78.5 241.5,78.5C 241.833,83.8333 242.167,83.8333 242.5,78.5C 247.5,78.5 252.5,78.5 257.5,78.5C 257.833,83.8333 258.167,83.8333 258.5,78.5C 261.167,78.5 263.833,78.5 266.5,78.5C 266.833,83.8333 267.167,83.8333 267.5,78.5C 272.5,78.5 277.5,78.5 282.5,78.5C 282.833,83.8333 283.167,83.8333 283.5,78.5C 286.167,78.5 288.833,78.5 291.5,78.5C 291.833,83.8333 292.167,83.8333 292.5,78.5C 297.5,78.5 302.5,78.5 307.5,78.5C 307.833,83.8333 308.167,83.8333 308.5,78.5C 310.766,78.1412 312.599,78.8078 314,80.5C 314.333,79.8333 314.667,79.1667 315,78.5C 315.549,80.7596 316.716,82.4262 318.5,83.5 Z"/></g>
<g><path style="opacity:1" fill="#148643" d="M 356.5,58.5 C 355.237,62.2706 355.404,65.9372 357,69.5C 357.5,69 358,68.5 358.5,68C 372.163,67.5001 385.829,67.3334 399.5,67.5C 399.5,81.1667 399.5,94.8333 399.5,108.5C 381.5,108.5 363.5,108.5 345.5,108.5C 345.665,105.15 345.498,101.817 345,98.5C 344.998,101.051 344.164,103.051 342.5,104.5C 342.5,103.833 342.5,103.167 342.5,102.5C 347.408,87.7825 352.074,73.1158 356.5,58.5 Z"/></g>
<g><path style="opacity:1" fill="#78b891" d="M 315.5,93.5 C 314.946,96.7458 313.946,99.7458 312.5,102.5C 312.446,99.0076 313.446,96.0076 315.5,93.5 Z"/></g>
<g><path style="opacity:1" fill="#77b78f" d="M 48.5,101.5 C 50.0739,103.102 50.7406,105.102 50.5,107.5C 48.9261,105.898 48.2594,103.898 48.5,101.5 Z"/></g>
<g><path style="opacity:1" fill="#7ebb95" d="M 342.5,102.5 C 342.5,103.167 342.5,103.833 342.5,104.5C 342.293,107.241 341.293,109.574 339.5,111.5C 339.928,108.215 340.928,105.215 342.5,102.5 Z"/></g>
<g><path style="opacity:1" fill="#138241" d="M 306.5,119.5 C 303.841,127.163 301.174,134.83 298.5,142.5C 297.21,143.058 296.377,144.058 296,145.5C 295.259,144.359 294.425,144.359 293.5,145.5C 292.713,144.758 292.047,143.925 291.5,143C 288.854,142.503 286.187,142.336 283.5,142.5C 283.167,154.5 282.833,154.5 282.5,142.5C 277.5,142.5 272.5,142.5 267.5,142.5C 267.167,154.5 266.833,154.5 266.5,142.5C 263.833,142.5 261.167,142.5 258.5,142.5C 258.167,154.5 257.833,154.5 257.5,142.5C 252.5,142.5 247.5,142.5 242.5,142.5C 242.167,154.5 241.833,154.5 241.5,142.5C 238.833,142.5 236.167,142.5 233.5,142.5C 233.167,154.5 232.833,154.5 232.5,142.5C 227.5,142.5 222.5,142.5 217.5,142.5C 217.167,154.5 216.833,154.5 216.5,142.5C 213.833,142.5 211.167,142.5 208.5,142.5C 208.167,154.5 207.833,154.5 207.5,142.5C 202.5,142.5 197.5,142.5 192.5,142.5C 192.167,154.5 191.833,154.5 191.5,142.5C 188.833,142.5 186.167,142.5 183.5,142.5C 183.167,154.5 182.833,154.5 182.5,142.5C 177.5,142.5 172.5,142.5 167.5,142.5C 167.167,154.5 166.833,154.5 166.5,142.5C 163.833,142.5 161.167,142.5 158.5,142.5C 158.167,154.5 157.833,154.5 157.5,142.5C 152.5,142.5 147.5,142.5 142.5,142.5C 142.167,154.5 141.833,154.5 141.5,142.5C 138.833,142.5 136.167,142.5 133.5,142.5C 133.167,154.5 132.833,154.5 132.5,142.5C 127.5,142.5 122.5,142.5 117.5,142.5C 117.167,154.5 116.833,154.5 116.5,142.5C 113.833,142.5 111.167,142.5 108.5,142.5C 108.167,154.5 107.833,154.5 107.5,142.5C 102.604,141.669 99.2708,143.503 97.5,148C 98.1845,149.693 99.1845,151.193 100.5,152.5C 99.675,153.386 98.675,153.719 97.5,153.5C 97.2939,150.762 96.2939,148.428 94.5,146.5C 93.5418,144.698 92.8751,142.698 92.5,140.5C 92.573,138.973 91.9063,137.973 90.5,137.5C 88.0972,128.291 85.0972,119.291 81.5,110.5C 82.9311,110.119 83.7645,109.119 84,107.5C 153.429,108.498 222.929,108.831 292.5,108.5C 292.5,110.833 292.5,113.167 292.5,115.5C 296.571,115.766 300.571,115.433 304.5,114.5C 304.594,116.239 304.761,118.239 305,120.5C 305.383,119.944 305.883,119.611 306.5,119.5 Z"/></g>
<g><path style="opacity:1" fill="#148342" d="M 37.5,67.5 C 40.9542,78.8334 44.6209,90.1667 48.5,101.5C 48.2594,103.898 48.9261,105.898 50.5,107.5C 52.9866,114.293 55.32,121.293 57.5,128.5C 58.5926,133.441 58.5926,138.108 57.5,142.5C 52.5,142.5 47.5,142.5 42.5,142.5C 42.1667,154.5 41.8333,154.5 41.5,142.5C 38.8333,142.5 36.1667,142.5 33.5,142.5C 33.1667,154.5 32.8333,154.5 32.5,142.5C 27.5,142.5 22.5,142.5 17.5,142.5C 17.1667,154.5 16.8333,154.5 16.5,142.5C 13.8333,142.5 11.1667,142.5 8.5,142.5C 8.16667,154.5 7.83333,154.5 7.5,142.5C 4.83333,142.5 2.16667,142.5 -0.5,142.5C -0.5,121.167 -0.5,99.8333 -0.5,78.5C 2.16667,78.5 4.83333,78.5 7.5,78.5C 7.83333,83.8333 8.16667,83.8333 8.5,78.5C 11.1667,78.5 13.8333,78.5 16.5,78.5C 16.8333,83.8333 17.1667,83.8333 17.5,78.5C 22.5,78.5 27.5,78.5 32.5,78.5C 32.3433,79.8734 32.51,81.2068 33,82.5C 33.23,78.5172 34.5634,77.8506 37,80.5C 37.3333,80.1667 37.6667,79.8333 38,79.5C 38.4973,75.4761 38.3307,71.4761 37.5,67.5 Z"/></g>
<g><path style="opacity:1" fill="#148140" d="M 399.5,108.5 C 399.5,125.167 399.5,141.833 399.5,158.5C 397.167,158.5 394.833,158.5 392.5,158.5C 392.167,163.833 391.833,163.833 391.5,158.5C 388.833,158.5 386.167,158.5 383.5,158.5C 383.167,163.833 382.833,163.833 382.5,158.5C 377.5,158.5 372.5,158.5 367.5,158.5C 367.167,163.833 366.833,163.833 366.5,158.5C 363.833,158.5 361.167,158.5 358.5,158.5C 358.167,163.833 357.833,163.833 357.5,158.5C 352.5,158.5 347.5,158.5 342.5,158.5C 342.167,163.833 341.833,163.833 341.5,158.5C 338.833,158.5 336.167,158.5 333.5,158.5C 333.167,163.833 332.833,163.833 332.5,158.5C 331.167,158.5 329.833,158.5 328.5,158.5C 327.424,157.621 326.59,155.954 326,153.5C 324.5,156.133 324.333,158.8 325.5,161.5C 325.062,162.506 324.396,162.506 323.5,161.5C 322.85,163.184 321.85,164.517 320.5,165.5C 327.51,147.534 333.843,129.534 339.5,111.5C 341.293,109.574 342.293,107.241 342.5,104.5C 344.164,103.051 344.998,101.051 345,98.5C 345.498,101.817 345.665,105.15 345.5,108.5C 363.5,108.5 381.5,108.5 399.5,108.5 Z"/></g>
<g><path style="opacity:1" fill="#8cc1a2" d="M 90.5,137.5 C 91.9063,137.973 92.573,138.973 92.5,140.5C 91.0937,140.027 90.427,139.027 90.5,137.5 Z"/></g>
<g><path style="opacity:1" fill="#137d3f" d="M 298.5,142.5 C 291.811,158.845 285.144,175.178 278.5,191.5C 223.639,191.473 168.306,191.473 112.5,191.5C 107.123,177.69 101.29,164.024 95,150.5C 94.51,149.207 94.3433,147.873 94.5,146.5C 96.2939,148.428 97.2939,150.762 97.5,153.5C 98.675,153.719 99.675,153.386 100.5,152.5C 99.1845,151.193 98.1845,149.693 97.5,148C 99.2708,143.503 102.604,141.669 107.5,142.5C 107.833,154.5 108.167,154.5 108.5,142.5C 111.167,142.5 113.833,142.5 116.5,142.5C 116.833,154.5 117.167,154.5 117.5,142.5C 122.5,142.5 127.5,142.5 132.5,142.5C 132.833,154.5 133.167,154.5 133.5,142.5C 136.167,142.5 138.833,142.5 141.5,142.5C 141.833,154.5 142.167,154.5 142.5,142.5C 147.5,142.5 152.5,142.5 157.5,142.5C 157.833,154.5 158.167,154.5 158.5,142.5C 161.167,142.5 163.833,142.5 166.5,142.5C 166.833,154.5 167.167,154.5 167.5,142.5C 172.5,142.5 177.5,142.5 182.5,142.5C 182.833,154.5 183.167,154.5 183.5,142.5C 186.167,142.5 188.833,142.5 191.5,142.5C 191.833,154.5 192.167,154.5 192.5,142.5C 197.5,142.5 202.5,142.5 207.5,142.5C 207.833,154.5 208.167,154.5 208.5,142.5C 211.167,142.5 213.833,142.5 216.5,142.5C 216.833,154.5 217.167,154.5 217.5,142.5C 222.5,142.5 227.5,142.5 232.5,142.5C 232.833,154.5 233.167,154.5 233.5,142.5C 236.167,142.5 238.833,142.5 241.5,142.5C 241.833,154.5 242.167,154.5 242.5,142.5C 247.5,142.5 252.5,142.5 257.5,142.5C 257.833,154.5 258.167,154.5 258.5,142.5C 261.167,142.5 263.833,142.5 266.5,142.5C 266.833,154.5 267.167,154.5 267.5,142.5C 272.5,142.5 277.5,142.5 282.5,142.5C 282.833,154.5 283.167,154.5 283.5,142.5C 286.187,142.336 288.854,142.503 291.5,143C 292.047,143.925 292.713,144.758 293.5,145.5C 294.425,144.359 295.259,144.359 296,145.5C 296.377,144.058 297.21,143.058 298.5,142.5 Z"/></g>
<g><path style="opacity:1" fill="#137d3f" d="M 399.5,158.5 C 399.5,166.833 399.5,175.167 399.5,183.5C 396.606,183.042 394.106,183.709 392,185.5C 390.82,184.316 389.32,183.649 387.5,183.5C 385.68,183.649 384.18,184.316 383,185.5C 380.617,184.234 377.95,183.568 375,183.5C 372.05,183.568 369.383,184.234 367,185.5C 365.82,184.316 364.32,183.649 362.5,183.5C 360.68,183.649 359.18,184.316 358,185.5C 355.617,184.234 352.95,183.568 350,183.5C 347.05,183.568 344.383,184.234 342,185.5C 340.82,184.316 339.32,183.649 337.5,183.5C 335.68,183.649 334.18,184.316 333,185.5C 327.144,183.959 321.144,182.626 315,181.5C 314.082,185.733 312.249,189.4 309.5,192.5C 312.365,183.113 316.032,174.113 320.5,165.5C 321.85,164.517 322.85,163.184 323.5,161.5C 324.396,162.506 325.062,162.506 325.5,161.5C 324.333,158.8 324.5,156.133 326,153.5C 326.59,155.954 327.424,157.621 328.5,158.5C 329.833,158.5 331.167,158.5 332.5,158.5C 332.833,163.833 333.167,163.833 333.5,158.5C 336.167,158.5 338.833,158.5 341.5,158.5C 341.833,163.833 342.167,163.833 342.5,158.5C 347.5,158.5 352.5,158.5 357.5,158.5C 357.833,163.833 358.167,163.833 358.5,158.5C 361.167,158.5 363.833,158.5 366.5,158.5C 366.833,163.833 367.167,163.833 367.5,158.5C 372.5,158.5 377.5,158.5 382.5,158.5C 382.833,163.833 383.167,163.833 383.5,158.5C 386.167,158.5 388.833,158.5 391.5,158.5C 391.833,163.833 392.167,163.833 392.5,158.5C 394.833,158.5 397.167,158.5 399.5,158.5 Z"/></g>
<g><path style="opacity:1" fill="#137d3f" d="M 57.5,128.5 C 63.6233,143.46 69.29,158.793 74.5,174.5C 74.0453,177.985 73.8786,181.652 74,185.5C 73.3333,182.833 72.6667,182.833 72,185.5C 70.3333,182.833 68.6667,182.833 67,185.5C 65.8197,184.316 64.3197,183.649 62.5,183.5C 60.6803,183.649 59.1803,184.316 58,185.5C 55.6166,184.234 52.95,183.568 50,183.5C 47.05,183.568 44.3834,184.234 42,185.5C 40.8197,184.316 39.3197,183.649 37.5,183.5C 35.6803,183.649 34.1803,184.316 33,185.5C 30.6166,184.234 27.95,183.568 25,183.5C 22.05,183.568 19.3834,184.234 17,185.5C 15.8197,184.316 14.3197,183.649 12.5,183.5C 10.6803,183.649 9.1803,184.316 8,185.5C 5.544,183.679 2.71066,183.012 -0.5,183.5C -0.5,169.833 -0.5,156.167 -0.5,142.5C 2.16667,142.5 4.83333,142.5 7.5,142.5C 7.83333,154.5 8.16667,154.5 8.5,142.5C 11.1667,142.5 13.8333,142.5 16.5,142.5C 16.8333,154.5 17.1667,154.5 17.5,142.5C 22.5,142.5 27.5,142.5 32.5,142.5C 32.8333,154.5 33.1667,154.5 33.5,142.5C 36.1667,142.5 38.8333,142.5 41.5,142.5C 41.8333,154.5 42.1667,154.5 42.5,142.5C 47.5,142.5 52.5,142.5 57.5,142.5C 58.5926,138.108 58.5926,133.441 57.5,128.5 Z"/></g>
<g><path style="opacity:1" fill="#12793c" d="M 74.5,174.5 C 79.6001,186.28 84.4335,198.28 89,210.5C 93.1258,217.198 96.9592,223.865 100.5,230.5C 98.3002,234.662 96.9668,234.329 96.5,229.5C 68.4876,228.183 40.4876,228.183 12.5,229.5C 11.646,228.478 10.646,227.645 9.5,227C 11.3025,224.897 13.6359,224.064 16.5,224.5C 16.8333,228.5 17.1667,228.5 17.5,224.5C 22.5,224.5 27.5,224.5 32.5,224.5C 32.8333,228.5 33.1667,228.5 33.5,224.5C 36.1667,224.5 38.8333,224.5 41.5,224.5C 41.8333,228.5 42.1667,228.5 42.5,224.5C 47.5,224.5 52.5,224.5 57.5,224.5C 57.8333,228.5 58.1667,228.5 58.5,224.5C 61.1667,224.5 63.8333,224.5 66.5,224.5C 66.8333,228.5 67.1667,228.5 67.5,224.5C 72.5,224.5 77.5,224.5 82.5,224.5C 82.8333,228.5 83.1667,228.5 83.5,224.5C 85.924,224.808 88.2573,224.474 90.5,223.5C 62.6007,222.829 34.7674,222.163 7,221.5C 6.25883,222.641 5.42549,222.641 4.5,221.5C 3.70245,221.957 3.36912,222.624 3.5,223.5C 2.16667,222.833 0.833333,222.167 -0.5,221.5C -0.5,208.833 -0.5,196.167 -0.5,183.5C 2.71066,183.012 5.544,183.679 8,185.5C 9.1803,184.316 10.6803,183.649 12.5,183.5C 14.3197,183.649 15.8197,184.316 17,185.5C 19.3834,184.234 22.05,183.568 25,183.5C 27.95,183.568 30.6166,184.234 33,185.5C 34.1803,184.316 35.6803,183.649 37.5,183.5C 39.3197,183.649 40.8197,184.316 42,185.5C 44.3834,184.234 47.05,183.568 50,183.5C 52.95,183.568 55.6166,184.234 58,185.5C 59.1803,184.316 60.6803,183.649 62.5,183.5C 64.3197,183.649 65.8197,184.316 67,185.5C 68.6667,182.833 70.3333,182.833 72,185.5C 72.6667,182.833 73.3333,182.833 74,185.5C 73.8786,181.652 74.0453,177.985 74.5,174.5 Z"/></g>
<g><path style="opacity:1" fill="#13793c" d="M 278.5,191.5 C 274.797,200.04 270.797,208.373 266.5,216.5C 266.671,213.203 266.005,212.869 264.5,215.5C 246.21,214.347 227.877,214.18 209.5,215C 208.263,215.232 207.263,215.732 206.5,216.5C 191.075,204.617 173.742,199.95 154.5,202.5C 150.55,202.488 147.216,203.821 144.5,206.5C 139.853,208.799 135.186,211.132 130.5,213.5C 129.103,213.205 127.603,212.871 126,212.5C 124.203,214.889 122.369,214.889 120.5,212.5C 119.014,205.042 116.348,198.042 112.5,191.5C 168.306,191.473 223.639,191.473 278.5,191.5 Z"/></g>
<g><path style="opacity:1" fill="#13793d" d="M 399.5,183.5 C 399.5,190.833 399.5,198.167 399.5,205.5C 379.803,198.219 361.469,200.552 344.5,212.5C 344.38,211.414 343.713,210.747 342.5,210.5C 340.525,212.137 338.525,213.804 336.5,215.5C 325.531,214.854 314.531,214.188 303.5,213.5C 302.377,211.518 302.377,209.518 303.5,207.5C 305.35,202.431 307.35,197.431 309.5,192.5C 312.249,189.4 314.082,185.733 315,181.5C 321.144,182.626 327.144,183.959 333,185.5C 334.18,184.316 335.68,183.649 337.5,183.5C 339.32,183.649 340.82,184.316 342,185.5C 344.383,184.234 347.05,183.568 350,183.5C 352.95,183.568 355.617,184.234 358,185.5C 359.18,184.316 360.68,183.649 362.5,183.5C 364.32,183.649 365.82,184.316 367,185.5C 369.383,184.234 372.05,183.568 375,183.5C 377.95,183.568 380.617,184.234 383,185.5C 384.18,184.316 385.68,183.649 387.5,183.5C 389.32,183.649 390.82,184.316 392,185.5C 394.106,183.709 396.606,183.042 399.5,183.5 Z"/></g>
<g><path style="opacity:1" fill="#fbfcfc" d="M 206.5,216.5 C 221.581,231.411 236.914,246.245 252.5,261C 255.965,262.322 259.298,263.822 262.5,265.5C 262.611,266.117 262.944,266.617 263.5,267C 269.349,267.818 275.015,267.652 280.5,266.5C 287.077,262.866 293.41,258.7 299.5,254C 313.443,238.885 328.443,225.052 344.5,212.5C 361.469,200.552 379.803,198.219 399.5,205.5C 399.5,216.167 399.5,226.833 399.5,237.5C 396.679,235.657 393.679,233.99 390.5,232.5C 388.865,231.954 387.199,231.62 385.5,231.5C 385.389,230.883 385.056,230.383 384.5,230C 379.833,229.333 375.167,229.333 370.5,230C 368.68,230.2 367.347,231.034 366.5,232.5C 362.559,234.14 358.892,236.306 355.5,239C 342.632,252.035 329.632,264.869 316.5,277.5C 311.006,281.478 305.339,285.311 299.5,289C 294.21,292.262 288.543,294.428 282.5,295.5C 277.203,296.275 271.87,296.608 266.5,296.5C 264.435,296.483 262.435,296.15 260.5,295.5C 258.898,293.926 256.898,293.259 254.5,293.5C 245.398,289.782 237.065,284.782 229.5,278.5C 216.675,266.175 204.008,253.675 191.5,241C 174.157,225.419 157.157,225.752 140.5,242C 133.631,248.702 126.964,255.535 120.5,262.5C 109.507,273.99 97.1741,283.824 83.5,292C 72.4925,296.371 61.1592,297.537 49.5,295.5C 47.8984,293.926 45.8984,293.259 43.5,293.5C 37.5899,291.212 31.9232,288.378 26.5,285C 17.2622,277.25 8.26221,269.417 -0.5,261.5C -0.5,248.167 -0.5,234.833 -0.5,221.5C 0.833333,222.167 2.16667,222.833 3.5,223.5C 15.7143,237.451 29.0477,250.284 43.5,262C 46.0639,263.396 48.7305,264.563 51.5,265.5C 51.6107,266.117 51.944,266.617 52.5,267C 58.1667,267.667 63.8333,267.667 69.5,267C 70.056,266.617 70.3893,266.117 70.5,265.5C 78.4272,262.083 85.4272,257.25 91.5,251C 104.575,238.484 117.575,225.984 130.5,213.5C 135.186,211.132 139.853,208.799 144.5,206.5C 148.09,205.517 151.423,204.183 154.5,202.5C 173.742,199.95 191.075,204.617 206.5,216.5 Z"/></g>
<g><path style="opacity:1" fill="#97c4a9" d="M 154.5,202.5 C 151.423,204.183 148.09,205.517 144.5,206.5C 147.216,203.821 150.55,202.488 154.5,202.5 Z"/></g>
<g><path style="opacity:1" fill="#127339" d="M 120.5,212.5 C 122.369,214.889 124.203,214.889 126,212.5C 127.603,212.871 129.103,213.205 130.5,213.5C 117.575,225.984 104.575,238.484 91.5,251C 85.4272,257.25 78.4272,262.083 70.5,265.5C 64.1667,266.833 57.8333,266.833 51.5,265.5C 48.7305,264.563 46.0639,263.396 43.5,262C 29.0477,250.284 15.7143,237.451 3.5,223.5C 3.36912,222.624 3.70245,221.957 4.5,221.5C 5.42549,222.641 6.25883,222.641 7,221.5C 34.7674,222.163 62.6007,222.829 90.5,223.5C 88.2573,224.474 85.924,224.808 83.5,224.5C 83.1667,228.5 82.8333,228.5 82.5,224.5C 77.5,224.5 72.5,224.5 67.5,224.5C 67.1667,228.5 66.8333,228.5 66.5,224.5C 63.8333,224.5 61.1667,224.5 58.5,224.5C 58.1667,228.5 57.8333,228.5 57.5,224.5C 52.5,224.5 47.5,224.5 42.5,224.5C 42.1667,228.5 41.8333,228.5 41.5,224.5C 38.8333,224.5 36.1667,224.5 33.5,224.5C 33.1667,228.5 32.8333,228.5 32.5,224.5C 27.5,224.5 22.5,224.5 17.5,224.5C 17.1667,228.5 16.8333,228.5 16.5,224.5C 13.6359,224.064 11.3025,224.897 9.5,227C 10.646,227.645 11.646,228.478 12.5,229.5C 40.4876,228.183 68.4876,228.183 96.5,229.5C 96.9668,234.329 98.3002,234.662 100.5,230.5C 106.739,224.043 113.406,218.043 120.5,212.5 Z"/></g>
<g><path style="opacity:1" fill="#137339" d="M 303.5,207.5 C 302.377,209.518 302.377,211.518 303.5,213.5C 314.531,214.188 325.531,214.854 336.5,215.5C 338.525,213.804 340.525,212.137 342.5,210.5C 343.713,210.747 344.38,211.414 344.5,212.5C 328.443,225.052 313.443,238.885 299.5,254C 293.41,258.7 287.077,262.866 280.5,266.5C 274.441,266.746 268.441,266.413 262.5,265.5C 259.298,263.822 255.965,262.322 252.5,261C 236.914,246.245 221.581,231.411 206.5,216.5C 207.263,215.732 208.263,215.232 209.5,215C 227.877,214.18 246.21,214.347 264.5,215.5C 266.005,212.869 266.671,213.203 266.5,216.5C 261.045,226.455 255.378,236.289 249.5,246C 254.249,251.882 260.249,256.049 267.5,258.5C 268.793,259.158 270.293,259.492 272,259.5C 273.986,259.431 275.486,258.765 276.5,257.5C 282.644,245.737 288.978,234.07 295.5,222.5C 297.408,221.514 298.408,219.848 298.5,217.5C 299.367,213.671 301.033,210.337 303.5,207.5 Z"/></g>
<g><path style="opacity:1" fill="#5c9f75" d="M 298.5,217.5 C 298.408,219.848 297.408,221.514 295.5,222.5C 295.75,220.326 296.75,218.659 298.5,217.5 Z"/></g>
<g><path style="opacity:1" fill="#61a37b" d="M 385.5,231.5 C 379.068,230.008 372.735,230.342 366.5,232.5C 367.347,231.034 368.68,230.2 370.5,230C 375.167,229.333 379.833,229.333 384.5,230C 385.056,230.383 385.389,230.883 385.5,231.5 Z"/></g>
<g><path style="opacity:1" fill="#fafcfb" d="M 156.5,265.5 C 164.041,275.693 173.708,283.36 185.5,288.5C 197.725,290.984 208.891,288.65 219,281.5C 226.743,287.737 234.909,293.403 243.5,298.5C 233.807,307.836 222.473,314.169 209.5,317.5C 198.733,319.028 188.067,318.694 177.5,316.5C 155.209,307.065 137.542,291.898 124.5,271C 124.978,269.358 125.978,268.191 127.5,267.5C 133.143,262.357 138.643,257.024 144,251.5C 148.395,255.951 152.561,260.617 156.5,265.5 Z"/></g>
<g><path style="opacity:1" fill="#7eb294" d="M 276.5,257.5 C 275.486,258.765 273.986,259.431 272,259.5C 270.293,259.492 268.793,259.158 267.5,258.5C 270.609,258.736 273.609,258.403 276.5,257.5 Z"/></g>
<g><path style="opacity:1" fill="#4c9368" d="M 262.5,265.5 C 268.441,266.413 274.441,266.746 280.5,266.5C 275.015,267.652 269.349,267.818 263.5,267C 262.944,266.617 262.611,266.117 262.5,265.5 Z"/></g>
<g><path style="opacity:1" fill="#127239" d="M 229.5,278.5 C 228.153,277.972 226.819,277.805 225.5,278C 226.833,279.333 228.167,280.667 229.5,282C 229,282.5 228.5,283 228,283.5C 225.254,281.904 222.42,280.571 219.5,279.5C 216.988,279.994 214.655,280.994 212.5,282.5C 211.304,282.154 211.304,281.654 212.5,281C 202.839,280.5 193.172,280.334 183.5,280.5C 183.5,278.5 183.5,276.5 183.5,274.5C 186.247,274.813 188.914,274.48 191.5,273.5C 183.187,272.668 174.853,272.168 166.5,272C 163.41,270.155 160.743,267.822 158.5,265C 157.563,264.308 156.897,264.475 156.5,265.5C 152.561,260.617 148.395,255.951 144,251.5C 138.643,257.024 133.143,262.357 127.5,267.5C 127.294,265.451 126.461,265.117 125,266.5C 124.5,266 124,265.5 123.5,265C 123.404,263.627 123.57,262.127 124,260.5C 123.184,261.823 122.017,262.489 120.5,262.5C 126.964,255.535 133.631,248.702 140.5,242C 157.157,225.752 174.157,225.419 191.5,241C 204.008,253.675 216.675,266.175 229.5,278.5 Z"/></g>
<g><path style="opacity:1" fill="#117138" d="M 385.5,231.5 C 387.199,231.62 388.865,231.954 390.5,232.5C 393.679,233.99 396.679,235.657 399.5,237.5C 399.5,252.5 399.5,267.5 399.5,282.5C 374.839,282.499 350.173,282.499 325.5,282.5C 323.167,282.333 320.833,282.167 318.5,282C 319.051,280.602 319.384,279.268 319.5,278C 318.552,277.517 317.552,277.351 316.5,277.5C 329.632,264.869 342.632,252.035 355.5,239C 358.892,236.306 362.559,234.14 366.5,232.5C 372.735,230.342 379.068,230.008 385.5,231.5 Z"/></g>
<g><path style="opacity:1" fill="#116d36" d="M 229.5,278.5 C 237.065,284.782 245.398,289.782 254.5,293.5C 256.102,295.074 258.102,295.741 260.5,295.5C 262.435,296.15 264.435,296.483 266.5,296.5C 268.473,297.163 270.639,297.496 273,297.5C 276.477,297.672 279.644,297.006 282.5,295.5C 288.543,294.428 294.21,292.262 299.5,289C 305.339,285.311 311.006,281.478 316.5,277.5C 317.552,277.351 318.552,277.517 319.5,278C 319.384,279.268 319.051,280.602 318.5,282C 320.833,282.167 323.167,282.333 325.5,282.5C 350.173,282.499 374.839,282.499 399.5,282.5C 399.5,294.833 399.5,307.167 399.5,319.5C 339.166,319.667 278.832,319.5 218.5,319C 217.366,317.984 217.699,317.317 219.5,317C 216.151,316.612 212.817,316.779 209.5,317.5C 222.473,314.169 233.807,307.836 243.5,298.5C 234.909,293.403 226.743,287.737 219,281.5C 208.891,288.65 197.725,290.984 185.5,288.5C 173.708,283.36 164.041,275.693 156.5,265.5C 156.897,264.475 157.563,264.308 158.5,265C 160.743,267.822 163.41,270.155 166.5,272C 174.853,272.168 183.187,272.668 191.5,273.5C 188.914,274.48 186.247,274.813 183.5,274.5C 183.5,276.5 183.5,278.5 183.5,280.5C 193.172,280.334 202.839,280.5 212.5,281C 211.304,281.654 211.304,282.154 212.5,282.5C 214.655,280.994 216.988,279.994 219.5,279.5C 222.42,280.571 225.254,281.904 228,283.5C 228.5,283 229,282.5 229.5,282C 228.167,280.667 226.833,279.333 225.5,278C 226.819,277.805 228.153,277.972 229.5,278.5 Z"/></g>
<g><path style="opacity:1" fill="#116d36" d="M 127.5,267.5 C 125.978,268.191 124.978,269.358 124.5,271C 137.542,291.898 155.209,307.065 177.5,316.5C 175.473,316.338 173.473,316.505 171.5,317C 172.5,317.333 173.5,317.667 174.5,318C 174.167,318.333 173.833,318.667 173.5,319C 115.501,319.5 57.501,319.667 -0.5,319.5C -0.5,300.167 -0.5,280.833 -0.5,261.5C 8.26221,269.417 17.2622,277.25 26.5,285C 31.9232,288.378 37.5899,291.212 43.5,293.5C 45.1016,295.074 47.1016,295.741 49.5,295.5C 61.1592,297.537 72.4925,296.371 83.5,292C 97.1741,283.824 109.507,273.99 120.5,262.5C 122.017,262.489 123.184,261.823 124,260.5C 123.57,262.127 123.404,263.627 123.5,265C 124,265.5 124.5,266 125,266.5C 126.461,265.117 127.294,265.451 127.5,267.5 Z"/></g>
<g><path style="opacity:1" fill="#64a27d" d="M 51.5,265.5 C 57.8333,266.833 64.1667,266.833 70.5,265.5C 70.3893,266.117 70.056,266.617 69.5,267C 63.8333,267.667 58.1667,267.667 52.5,267C 51.944,266.617 51.6107,266.117 51.5,265.5 Z"/></g>
<g><path style="opacity:1" fill="#95bea6" d="M 43.5,293.5 C 45.8984,293.259 47.8984,293.926 49.5,295.5C 47.1016,295.741 45.1016,295.074 43.5,293.5 Z"/></g>
<g><path style="opacity:1" fill="#8db9a0" d="M 254.5,293.5 C 256.898,293.259 258.898,293.926 260.5,295.5C 258.102,295.741 256.102,295.074 254.5,293.5 Z"/></g>
<g><path style="opacity:1" fill="#569871" d="M 282.5,295.5 C 279.644,297.006 276.477,297.672 273,297.5C 270.639,297.496 268.473,297.163 266.5,296.5C 271.87,296.608 277.203,296.275 282.5,295.5 Z"/></g>
<g><path style="opacity:1" fill="#0f6a35" d="M 177.5,316.5 C 188.067,318.694 198.733,319.028 209.5,317.5C 212.817,316.779 216.151,316.612 219.5,317C 217.699,317.317 217.366,317.984 218.5,319C 278.832,319.5 339.166,319.667 399.5,319.5C 399.5,325.167 399.5,330.833 399.5,336.5C 266.167,336.5 132.833,336.5 -0.5,336.5C -0.5,330.833 -0.5,325.167 -0.5,319.5C 57.501,319.667 115.501,319.5 173.5,319C 173.833,318.667 174.167,318.333 174.5,318C 173.5,317.667 172.5,317.333 171.5,317C 173.473,316.505 175.473,316.338 177.5,316.5 Z"/></g>
<g><path style="opacity:1" fill="#0f6734" d="M -0.5,336.5 C 132.833,336.5 266.167,336.5 399.5,336.5C 399.5,357.5 399.5,378.5 399.5,399.5C 266.167,399.5 132.833,399.5 -0.5,399.5C -0.5,378.5 -0.5,357.5 -0.5,336.5 Z"/></g>
</svg>
