<?xml version="1.0" encoding="UTF-8"?>
<!DOCTYPE svg PUBLIC "-//W3C//DTD SVG 1.1//EN" "http://www.w3.org/Graphics/SVG/1.1/DTD/svg11.dtd">
<svg xmlns="http://www.w3.org/2000/svg" version="1.1" width="505px" height="494px" style="shape-rendering:geometricPrecision; text-rendering:geometricPrecision; image-rendering:optimizeQuality; fill-rule:evenodd; clip-rule:evenodd" xmlns:xlink="http://www.w3.org/1999/xlink">
<g><path style="opacity:1" fill="#18af97" d="M 329.5,36.5 C 400.808,64.3113 447.308,114.978 469,188.5C 489.093,277.204 466.26,352.704 400.5,415C 337.304,467.109 265.97,482.442 186.5,461C 125.287,441.275 80.2867,402.775 51.5,345.5C 51.4453,343.459 51.4453,341.292 51.5,339C 50.4982,337.328 49.3316,336.162 48,335.5C 44.5525,327.701 41.5525,319.701 39,311.5C 38.6012,311.728 38.4346,312.062 38.5,312.5C 34.778,303.275 32.4447,293.609 31.5,283.5C 31.3573,281.738 31.6906,280.071 32.5,278.5C 30.8449,273.684 30.0116,268.684 30,263.5C 29.5001,250.504 29.3334,237.504 29.5,224.5C 39.0526,146.513 77.7193,88.0128 145.5,49C 164.693,38.5472 185.026,31.3806 206.5,27.5C 212.964,27.4305 219.297,26.5972 225.5,25C 241.833,24.3333 258.167,24.3333 274.5,25C 285.676,26.7483 297.009,28.915 308.5,31.5C 310.274,32.1867 311.941,33.0201 313.5,34C 312.833,34.3333 312.167,34.6667 311.5,35C 315.708,34.7398 319.041,36.2398 321.5,39.5C 322.5,38.1667 323.5,38.1667 324.5,39.5C 325.506,39.0623 325.506,38.3957 324.5,37.5C 326.045,36.5481 327.712,36.2148 329.5,36.5 Z"/></g>
<g><path style="opacity:1" fill="#3baf9a" d="M 329.5,36.5 C 327.712,36.2148 326.045,36.5481 324.5,37.5C 325.506,38.3957 325.506,39.0623 324.5,39.5C 323.5,38.1667 322.5,38.1667 321.5,39.5C 319.041,36.2398 315.708,34.7398 311.5,35C 312.167,34.6667 312.833,34.3333 313.5,34C 311.941,33.0201 310.274,32.1867 308.5,31.5C 297.009,28.915 285.676,26.7483 274.5,25C 258.167,24.3333 241.833,24.3333 225.5,25C 219.297,26.5972 212.964,27.4305 206.5,27.5C 236.975,21.0078 267.642,20.8411 298.5,27C 309.288,29.1069 319.621,32.2735 329.5,36.5 Z"/></g>
<g><path style="opacity:1" fill="#52b4a4" d="M 244.5,110.5 C 247.146,109.836 249.979,109.502 253,109.5C 260.836,109.956 268.669,110.456 276.5,111C 277.737,111.232 278.737,111.732 279.5,112.5C 272.847,111.946 266.18,111.612 259.5,111.5C 254.695,110.513 249.695,110.179 244.5,110.5 Z"/></g>
<g><path style="opacity:1" fill="#c8f7f2" d="M 244.5,110.5 C 249.695,110.179 254.695,110.513 259.5,111.5C 247.438,111.26 235.438,111.927 223.5,113.5C 230.224,111.492 237.224,110.492 244.5,110.5 Z"/></g>
<g><path style="opacity:1" fill="#f9fefd" d="M 259.5,111.5 C 266.18,111.612 272.847,111.946 279.5,112.5C 290.059,116.132 300.726,119.799 311.5,123.5C 308.182,127.356 305.349,131.69 303,136.5C 302.505,138.473 302.338,140.473 302.5,142.5C 299.285,142.095 296.285,141.095 293.5,139.5C 293.423,138.25 292.756,137.417 291.5,137C 288.522,136.304 285.522,135.804 282.5,135.5C 276.296,133.699 269.963,132.699 263.5,132.5C 254.343,131.342 245.009,131.176 235.5,132C 233.942,132.21 232.609,132.71 231.5,133.5C 195.248,140.581 168.082,160.248 150,192.5C 149.392,194.154 148.892,195.821 148.5,197.5C 146.5,201.5 144.5,205.5 142.5,209.5C 140.88,210.841 139.88,212.674 139.5,215C 138.175,214.852 137.008,215.018 136,215.5C 135.544,216.744 136.044,217.577 137.5,218C 133.208,218.694 129.208,217.861 125.5,215.5C 123.682,214.176 122.682,212.343 122.5,210C 124.198,205.645 125.198,201.145 125.5,196.5C 144.037,152.307 176.703,124.64 223.5,113.5C 235.438,111.927 247.438,111.26 259.5,111.5 Z"/></g>
<g><path style="opacity:1" fill="#d9fbf8" d="M 335.5,127.5 C 338.391,128.789 340.725,130.789 342.5,133.5C 339.497,132.584 336.83,131.084 334.5,129C 329.845,128.501 325.179,128.334 320.5,128.5C 325.245,126.212 330.245,125.878 335.5,127.5 Z"/></g>
<g><path style="opacity:1" fill="#fafefd" d="M 320.5,128.5 C 325.179,128.334 329.845,128.501 334.5,129C 336.83,131.084 339.497,132.584 342.5,133.5C 345.589,139.045 346.922,145.045 346.5,151.5C 345.143,156.568 342.143,160.235 337.5,162.5C 332.71,164.034 327.71,164.701 322.5,164.5C 313.66,161.136 309.327,154.636 309.5,145C 309.557,137.044 313.223,131.544 320.5,128.5 Z"/></g>
<g><path style="opacity:1" fill="#64c5b2" d="M 263.5,132.5 C 252.815,132.39 242.148,132.723 231.5,133.5C 232.609,132.71 233.942,132.21 235.5,132C 245.009,131.176 254.343,131.342 263.5,132.5 Z"/></g>
<g><path style="opacity:1" fill="#fbfefe" d="M 174.5,233.5 C 173.761,233.369 173.094,233.536 172.5,234C 171.262,234.69 171.262,235.19 172.5,235.5C 231.668,236.167 291.001,236.833 350.5,237.5C 347.902,242.877 347.902,248.211 350.5,253.5C 285.175,255.497 219.508,256.163 153.5,255.5C 153.5,253.833 153.5,252.167 153.5,250.5C 154.376,242.289 152.376,234.955 147.5,228.5C 147.461,227.417 147.127,226.417 146.5,225.5C 149.87,223.262 153.536,221.595 157.5,220.5C 158.425,219.643 159.092,218.643 159.5,217.5C 183.725,204.721 208.391,192.388 233.5,180.5C 236.568,180.453 239.568,179.953 242.5,179C 244.141,177.871 245.141,176.371 245.5,174.5C 263.651,164.424 282.318,155.424 301.5,147.5C 302.526,154.22 305.193,160.22 309.5,165.5C 264.601,188.45 219.601,211.116 174.5,233.5 Z"/></g>
<g><path style="opacity:1" fill="#f8fdfd" d="M 347.5,163.5 C 348.376,163.369 349.043,163.702 349.5,164.5C 355.859,176.554 362.192,188.554 368.5,200.5C 369.524,205.424 371.524,209.924 374.5,214C 371.863,216.441 372.53,217.775 376.5,218C 371.706,218.347 367.04,219.18 362.5,220.5C 362.5,221.5 362.5,222.5 362.5,223.5C 361.064,225.319 359.397,225.652 357.5,224.5C 348.435,207.371 339.102,190.371 329.5,173.5C 333.5,172.9 337.166,171.567 340.5,169.5C 343.447,168.219 345.781,166.219 347.5,163.5 Z"/></g>
<g><path style="opacity:1" fill="#1baf98" d="M 279.5,112.5 C 284.859,112.67 290.192,113.17 295.5,114C 296.657,115.589 298.657,116.922 301.5,118C 303.769,118.758 305.936,118.591 308,117.5C 308.572,120.707 310.405,122.374 313.5,122.5C 313.643,124.262 313.309,125.929 312.5,127.5C 314.674,128.893 316.507,128.56 318,126.5C 318.333,126.833 318.667,127.167 319,127.5C 323.511,124.914 328.344,124.081 333.5,125C 334.756,125.417 335.423,126.25 335.5,127.5C 330.245,125.878 325.245,126.212 320.5,128.5C 313.223,131.544 309.557,137.044 309.5,145C 309.327,154.636 313.66,161.136 322.5,164.5C 325.976,165.643 329.642,165.81 333.5,165C 335.066,164.392 336.4,163.558 337.5,162.5C 342.143,160.235 345.143,156.568 346.5,151.5C 348.368,145.103 347.368,139.103 343.5,133.5C 345.017,133.511 346.184,134.177 347,135.5C 347.71,134.027 348.876,133.36 350.5,133.5C 349.989,136.028 349.322,138.528 348.5,141C 348.499,144.043 349.332,144.21 351,141.5C 351.507,142.996 351.007,144.163 349.5,145C 354.001,146.817 354.501,149.317 351,152.5C 350.64,150.392 349.973,148.392 349,146.5C 348.366,151.892 346.866,156.892 344.5,161.5C 343.5,161.5 342.5,161.5 341.5,161.5C 341.5,162.833 341.5,164.167 341.5,165.5C 340.167,165.5 338.833,165.5 337.5,165.5C 337.5,166.5 337.5,167.5 337.5,168.5C 338.791,168.263 339.791,168.596 340.5,169.5C 337.166,171.567 333.5,172.9 329.5,173.5C 339.102,190.371 348.435,207.371 357.5,224.5C 359.397,225.652 361.064,225.319 362.5,223.5C 367.738,220.739 373.071,218.739 378.5,217.5C 379.404,218.209 379.737,219.209 379.5,220.5C 376.813,220.336 374.146,220.503 371.5,221C 372.833,221.333 374.167,221.667 375.5,222C 375.043,222.414 374.709,222.914 374.5,223.5C 376.743,224.474 379.076,224.808 381.5,224.5C 381.789,219.408 382.789,219.241 384.5,224C 384.355,224.772 384.022,225.439 383.5,226C 385.421,226.36 387.088,227.194 388.5,228.5C 389.386,227.675 389.719,226.675 389.5,225.5C 387.897,225.688 386.563,225.188 385.5,224C 389.812,222.456 391.978,223.956 392,228.5C 393.255,229.211 394.421,230.044 395.5,231C 393.881,231.236 392.881,232.069 392.5,233.5C 384.377,225.754 375.377,224.587 365.5,230C 362.619,232.279 360.619,235.112 359.5,238.5C 357.431,242.044 357.098,245.71 358.5,249.5C 359.109,253.385 360.776,256.718 363.5,259.5C 361.983,259.489 360.816,258.823 360,257.5C 357.993,260.212 358.826,261.712 362.5,262C 360.104,265.25 359.437,268.75 360.5,272.5C 361.735,271.66 362.735,270.66 363.5,269.5C 362.674,273.136 362.008,276.803 361.5,280.5C 359.581,285.734 357.248,290.734 354.5,295.5C 356.383,289.349 358.383,283.182 360.5,277C 360.406,274.046 359.906,273.879 359,276.5C 358.624,273.99 357.79,271.657 356.5,269.5C 352.802,272.328 352.135,271.995 354.5,268.5C 352.838,267.673 351.505,266.507 350.5,265C 352.936,265.053 355.269,264.887 357.5,264.5C 356.687,263.186 355.687,262.019 354.5,261C 357.993,259.583 358.16,258.083 355,256.5C 354.617,257.056 354.117,257.389 353.5,257.5C 352.273,250.156 352.273,242.156 353.5,233.5C 304.664,233.168 255.997,233.501 207.5,234.5C 196.321,234.828 185.321,234.495 174.5,233.5C 219.601,211.116 264.601,188.45 309.5,165.5C 305.193,160.22 302.526,154.22 301.5,147.5C 282.318,155.424 263.651,164.424 245.5,174.5C 241.182,175.992 237.182,177.992 233.5,180.5C 208.391,192.388 183.725,204.721 159.5,217.5C 154.635,219.03 149.969,221.03 145.5,223.5C 144.614,224.325 144.281,225.325 144.5,226.5C 143.816,228.185 142.483,229.185 140.5,229.5C 137.924,228.117 138.258,227.283 141.5,227C 140.5,226.5 139.5,226 138.5,225.5C 136.568,226.52 134.568,226.687 132.5,226C 134.569,225.676 134.902,224.842 133.5,223.5C 136.027,222.786 138.527,222.12 141,221.5C 142.002,217.329 143.502,213.329 145.5,209.5C 146.814,210.313 147.981,211.313 149,212.5C 150.23,211.725 150.563,210.725 150,209.5C 149.333,210.833 148.667,210.833 148,209.5C 146.699,207.635 146.365,205.635 147,203.5C 147.333,203.833 147.667,204.167 148,204.5C 148.497,202.19 148.663,199.857 148.5,197.5C 148.892,195.821 149.392,194.154 150,192.5C 168.082,160.248 195.248,140.581 231.5,133.5C 242.148,132.723 252.815,132.39 263.5,132.5C 269.963,132.699 276.296,133.699 282.5,135.5C 286.026,136.974 289.693,138.307 293.5,139.5C 296.285,141.095 299.285,142.095 302.5,142.5C 302.338,140.473 302.505,138.473 303,136.5C 305.349,131.69 308.182,127.356 311.5,123.5C 300.726,119.799 290.059,116.132 279.5,112.5 Z"/></g>
<g><path style="opacity:1" fill="#bcede6" d="M 337.5,162.5 C 336.4,163.558 335.066,164.392 333.5,165C 329.642,165.81 325.976,165.643 322.5,164.5C 327.71,164.701 332.71,164.034 337.5,162.5 Z"/></g>
<g><path style="opacity:1" fill="#cef7f3" d="M 342.5,133.5 C 342.833,133.5 343.167,133.5 343.5,133.5C 347.368,139.103 348.368,145.103 346.5,151.5C 346.922,145.045 345.589,139.045 342.5,133.5 Z"/></g>
<g><path style="opacity:1" fill="#c5f3ed" d="M 282.5,135.5 C 285.522,135.804 288.522,136.304 291.5,137C 292.756,137.417 293.423,138.25 293.5,139.5C 289.693,138.307 286.026,136.974 282.5,135.5 Z"/></g>
<g><path style="opacity:1" fill="#dcfbf8" d="M 380.5,200.5 C 381.323,202.455 381.49,204.455 381,206.5C 372.669,191.353 364.169,176.353 355.5,161.5C 355.297,159.956 354.63,158.622 353.5,157.5C 353.833,157.167 354.167,156.833 354.5,156.5C 365.743,169.654 374.41,184.321 380.5,200.5 Z"/></g>
<g><path style="opacity:1" fill="#ddfaf7" d="M 245.5,174.5 C 245.141,176.371 244.141,177.871 242.5,179C 239.568,179.953 236.568,180.453 233.5,180.5C 237.182,177.992 241.182,175.992 245.5,174.5 Z"/></g>
<g><path style="opacity:1" fill="#2baf99" d="M 355.5,161.5 C 364.169,176.353 372.669,191.353 381,206.5C 381.49,204.455 381.323,202.455 380.5,200.5C 381.79,199.942 382.623,198.942 383,197.5C 383.337,200.861 383.837,204.194 384.5,207.5C 384.281,208.938 383.781,210.271 383,211.5C 381.887,210.289 380.72,210.289 379.5,211.5C 378.548,213.045 378.215,214.712 378.5,216.5C 375.167,211.167 371.833,205.833 368.5,200.5C 362.192,188.554 355.859,176.554 349.5,164.5C 349.043,163.702 348.376,163.369 347.5,163.5C 348.601,162.402 349.934,162.235 351.5,163C 351.167,163.333 350.833,163.667 350.5,164C 351.46,165.419 352.293,166.919 353,168.5C 353.156,165.809 353.989,163.476 355.5,161.5 Z"/></g>
<g><path style="opacity:1" fill="#eafdfc" d="M 125.5,196.5 C 125.198,201.145 124.198,205.645 122.5,210C 122.682,212.343 123.682,214.176 125.5,215.5C 129.208,217.861 133.208,218.694 137.5,218C 136.044,217.577 135.544,216.744 136,215.5C 137.008,215.018 138.175,214.852 139.5,215C 139.88,212.674 140.88,210.841 142.5,209.5C 142.085,213.833 140.752,217.833 138.5,221.5C 136.677,220.253 134.677,219.586 132.5,219.5C 131.833,219.5 131.167,219.5 130.5,219.5C 127.3,218.212 123.967,218.212 120.5,219.5C 119.571,218.311 119.238,216.978 119.5,215.5C 120.506,208.75 122.506,202.416 125.5,196.5 Z"/></g>
<g><path style="opacity:1" fill="#e4fcf9" d="M 368.5,200.5 C 371.833,205.833 375.167,211.167 378.5,216.5C 378.5,216.833 378.5,217.167 378.5,217.5C 373.071,218.739 367.738,220.739 362.5,223.5C 362.5,222.5 362.5,221.5 362.5,220.5C 367.04,219.18 371.706,218.347 376.5,218C 372.53,217.775 371.863,216.441 374.5,214C 371.524,209.924 369.524,205.424 368.5,200.5 Z"/></g>
<g><path style="opacity:1" fill="#74cabb" d="M 119.5,215.5 C 119.238,216.978 119.571,218.311 120.5,219.5C 123.967,218.212 127.3,218.212 130.5,219.5C 126.466,219.505 122.466,219.838 118.5,220.5C 118.216,218.585 118.549,216.919 119.5,215.5 Z"/></g>
<g><path style="opacity:1" fill="#d9f8f6" d="M 159.5,217.5 C 159.092,218.643 158.425,219.643 157.5,220.5C 153.536,221.595 149.87,223.262 146.5,225.5C 147.127,226.417 147.461,227.417 147.5,228.5C 146.5,227.833 145.5,227.167 144.5,226.5C 144.281,225.325 144.614,224.325 145.5,223.5C 149.969,221.03 154.635,219.03 159.5,217.5 Z"/></g>
<g><path style="opacity:1" fill="#fafefd" d="M 120.5,227.5 C 125.71,227.299 130.71,227.966 135.5,229.5C 144.304,233.685 147.471,240.685 145,250.5C 144.333,252.5 143.667,254.5 143,256.5C 141.293,258.037 139.793,259.704 138.5,261.5C 130.925,266.509 123.258,266.676 115.5,262C 113.536,260.549 112.203,258.716 111.5,256.5C 110.801,253.03 109.801,249.697 108.5,246.5C 109.427,242.248 111.094,238.248 113.5,234.5C 114.532,236.04 115.865,236.54 117.5,236C 116.139,234.416 115.472,232.582 115.5,230.5C 116.659,228.75 118.326,227.75 120.5,227.5 Z"/></g>
<g><path style="opacity:1" fill="#cef8f4" d="M 120.5,227.5 C 121.568,226.566 122.901,226.232 124.5,226.5C 128.706,225.945 132.373,226.945 135.5,229.5C 130.71,227.966 125.71,227.299 120.5,227.5 Z"/></g>
<g><path style="opacity:1" fill="#f9fdfd" d="M 392.5,233.5 C 398.337,242.802 397.671,251.635 390.5,260C 388.024,262.571 385.024,264.071 381.5,264.5C 376.626,264.642 371.959,263.976 367.5,262.5C 365.77,261.974 364.436,260.974 363.5,259.5C 360.776,256.718 359.109,253.385 358.5,249.5C 358.552,245.802 358.886,242.135 359.5,238.5C 360.619,235.112 362.619,232.279 365.5,230C 375.377,224.587 384.377,225.754 392.5,233.5 Z"/></g>
<g><path style="opacity:1" fill="#6ecabb" d="M 174.5,233.5 C 185.321,234.495 196.321,234.828 207.5,234.5C 255.833,234.5 304.167,234.5 352.5,234.5C 352.737,235.791 352.404,236.791 351.5,237.5C 292.176,235.504 232.509,234.837 172.5,235.5C 171.262,235.19 171.262,234.69 172.5,234C 173.094,233.536 173.761,233.369 174.5,233.5 Z"/></g>
<g><path style="opacity:1" fill="#e8fefe" d="M 172.5,235.5 C 232.509,234.837 292.176,235.504 351.5,237.5C 350.617,242.103 350.283,246.77 350.5,251.5C 350.5,252.167 350.5,252.833 350.5,253.5C 347.902,248.211 347.902,242.877 350.5,237.5C 291.001,236.833 231.668,236.167 172.5,235.5 Z"/></g>
<g><path style="opacity:1" fill="#e3fbf9" d="M 115.5,230.5 C 115.472,232.582 116.139,234.416 117.5,236C 115.865,236.54 114.532,236.04 113.5,234.5C 111.094,238.248 109.427,242.248 108.5,246.5C 109.801,249.697 110.801,253.03 111.5,256.5C 109.864,255.251 108.697,253.584 108,251.5C 105.516,242.51 108.016,235.51 115.5,230.5 Z"/></g>
<g><path style="opacity:1" fill="#a9e6df" d="M 359.5,238.5 C 358.886,242.135 358.552,245.802 358.5,249.5C 357.098,245.71 357.431,242.044 359.5,238.5 Z"/></g>
<g><path style="opacity:1" fill="#31af9b" d="M 148.5,197.5 C 148.663,199.857 148.497,202.19 148,204.5C 147.667,204.167 147.333,203.833 147,203.5C 146.365,205.635 146.699,207.635 148,209.5C 148.667,210.833 149.333,210.833 150,209.5C 150.563,210.725 150.23,211.725 149,212.5C 147.981,211.313 146.814,210.313 145.5,209.5C 143.502,213.329 142.002,217.329 141,221.5C 138.527,222.12 136.027,222.786 133.5,223.5C 134.902,224.842 134.569,225.676 132.5,226C 134.568,226.687 136.568,226.52 138.5,225.5C 139.5,226 140.5,226.5 141.5,227C 138.258,227.283 137.924,228.117 140.5,229.5C 142.483,229.185 143.816,228.185 144.5,226.5C 145.5,227.167 146.5,227.833 147.5,228.5C 152.376,234.955 154.376,242.289 153.5,250.5C 152.599,251.29 151.932,252.29 151.5,253.5C 150.778,253.082 150.278,252.416 150,251.5C 149,256.833 148,256.833 147,251.5C 146,254.167 145,256.833 144,259.5C 143.667,259.167 143.333,258.833 143,258.5C 141.871,260.141 140.371,261.141 138.5,261.5C 139.793,259.704 141.293,258.037 143,256.5C 143.667,254.5 144.333,252.5 145,250.5C 147.471,240.685 144.304,233.685 135.5,229.5C 132.373,226.945 128.706,225.945 124.5,226.5C 129.083,226.407 131.749,224.074 132.5,219.5C 134.677,219.586 136.677,220.253 138.5,221.5C 140.752,217.833 142.085,213.833 142.5,209.5C 144.5,205.5 146.5,201.5 148.5,197.5 Z"/></g>
<g><path style="opacity:1" fill="#d9fefe" d="M 153.5,250.5 C 153.5,252.167 153.5,253.833 153.5,255.5C 219.508,256.163 285.175,255.497 350.5,253.5C 350.5,252.833 350.5,252.167 350.5,251.5C 351.309,253.028 351.976,254.694 352.5,256.5C 285.331,256.832 218.331,256.499 151.5,255.5C 151.5,254.833 151.5,254.167 151.5,253.5C 151.932,252.29 152.599,251.29 153.5,250.5 Z"/></g>
<g><path style="opacity:1" fill="#69bdb3" d="M 151.5,255.5 C 218.331,256.499 285.331,256.832 352.5,256.5C 285.669,257.499 218.669,257.832 151.5,257.5C 150.167,256.833 150.167,256.167 151.5,255.5 Z"/></g>
<g><path style="opacity:1" fill="#25a890" d="M 207.5,234.5 C 255.997,233.501 304.664,233.168 353.5,233.5C 352.273,242.156 352.273,250.156 353.5,257.5C 286.167,258.833 218.833,258.833 151.5,257.5C 218.669,257.832 285.669,257.499 352.5,256.5C 351.976,254.694 351.309,253.028 350.5,251.5C 350.283,246.77 350.617,242.103 351.5,237.5C 352.404,236.791 352.737,235.791 352.5,234.5C 304.167,234.5 255.833,234.5 207.5,234.5 Z"/></g>
<g><path style="opacity:1" fill="#b7eae6" d="M 367.5,262.5 C 371.959,263.976 376.626,264.642 381.5,264.5C 378.36,265.641 375.027,265.808 371.5,265C 369.934,264.392 368.6,263.558 367.5,262.5 Z"/></g>
<g><path style="opacity:1" fill="#53b6a5" d="M 29.5,224.5 C 29.3334,237.504 29.5001,250.504 30,263.5C 30.0116,268.684 30.8449,273.684 32.5,278.5C 31.6906,280.071 31.3573,281.738 31.5,283.5C 27.7,263.911 27.0333,244.244 29.5,224.5 Z"/></g>
<g><path style="opacity:1" fill="#fafdfd" d="M 234.5,359.5 C 235.718,360.161 237.051,360.828 238.5,361.5C 247.147,362.665 255.814,362.832 264.5,362C 269.524,361.235 274.191,359.735 278.5,357.5C 284.915,355.794 291.248,353.794 297.5,351.5C 302.331,350.424 306.997,348.757 311.5,346.5C 312.524,345.148 313.524,343.815 314.5,342.5C 332.15,330.516 345.483,314.849 354.5,295.5C 357.248,290.734 359.581,285.734 361.5,280.5C 362.15,280.196 362.817,279.863 363.5,279.5C 364.321,276.553 364.821,273.553 365,270.5C 370.231,273.953 376.064,275.287 382.5,274.5C 382.132,279.557 381.465,284.557 380.5,289.5C 369.525,321.923 349.192,346.757 319.5,364C 309.293,369.456 298.626,373.622 287.5,376.5C 275.205,378.8 262.705,380.134 250,380.5C 241.39,380.7 232.89,379.867 224.5,378C 224.833,377.667 225.167,377.333 225.5,377C 222.183,376.502 218.85,376.335 215.5,376.5C 197.767,372.133 181.767,364.3 167.5,353C 142.13,331.776 125.797,304.943 118.5,272.5C 125.889,272.825 133.222,271.825 140.5,269.5C 148.808,306.975 170.141,334.141 204.5,351C 214.166,355.083 224.166,357.916 234.5,359.5 Z"/></g>
<g><path style="opacity:1" fill="#d7f9f7" d="M 363.5,269.5 C 367.67,271.11 372.003,272.11 376.5,272.5C 379.517,272.232 382.517,271.898 385.5,271.5C 384.43,277.792 382.764,283.792 380.5,289.5C 381.465,284.557 382.132,279.557 382.5,274.5C 376.064,275.287 370.231,273.953 365,270.5C 364.821,273.553 364.321,276.553 363.5,279.5C 362.817,279.863 362.15,280.196 361.5,280.5C 362.008,276.803 362.674,273.136 363.5,269.5 Z"/></g>
<g><path style="opacity:1" fill="#43af9c" d="M 51.5,345.5 C 45.8065,335.101 41.4732,324.101 38.5,312.5C 38.4346,312.062 38.6012,311.728 39,311.5C 41.5525,319.701 44.5525,327.701 48,335.5C 49.3316,336.162 50.4982,337.328 51.5,339C 51.4453,341.292 51.4453,343.459 51.5,345.5 Z"/></g>
<g><path style="opacity:1" fill="#d5f6f3" d="M 314.5,342.5 C 313.524,343.815 312.524,345.148 311.5,346.5C 306.997,348.757 302.331,350.424 297.5,351.5C 303.001,348.249 308.667,345.249 314.5,342.5 Z"/></g>
<g><path style="opacity:1" fill="#ddfbf8" d="M 278.5,357.5 C 274.191,359.735 269.524,361.235 264.5,362C 255.814,362.832 247.147,362.665 238.5,361.5C 237.051,360.828 235.718,360.161 234.5,359.5C 249.297,361.217 263.964,360.55 278.5,357.5 Z"/></g>
<g><path style="opacity:1" fill="#dffcfa" d="M 215.5,376.5 C 218.85,376.335 222.183,376.502 225.5,377C 225.167,377.333 224.833,377.667 224.5,378C 232.89,379.867 241.39,380.7 250,380.5C 262.705,380.134 275.205,378.8 287.5,376.5C 282.305,378.466 276.971,379.799 271.5,380.5C 262.191,381.317 252.857,381.65 243.5,381.5C 233.776,381.306 224.442,379.639 215.5,376.5 Z"/></g>
<g><path style="opacity:1" fill="#5bbdae" d="M 271.5,380.5 C 266.431,382.057 261.098,382.724 255.5,382.5C 251.319,382.499 247.319,382.166 243.5,381.5C 252.857,381.65 262.191,381.317 271.5,380.5 Z"/></g>
</svg>
